# xmcd
#
# Track frame offsets: 
#        150
#        14680
#        26236
#        46088
#        57439
#        75606
#        90993
#        109842
#        126030
#        138104
#        165305
#        177258
#
# Disc length: 2493 seconds
#
# Revision: 0
# Processed by: cddbd v1.5.1PL2 Copyright (c) Steve Scherf et al.
# Submitted via: ExactAudioCopy v0.95b3
#
DISCID=9009bb0c
DTITLE=Gosh Brothers - Schöne Männer
DYEAR=2004
DGENRE=Comedy
TTITLE0=Schöne Männer
TTITLE1=Haarlack
TTITLE2=Motorola
TTITLE3=Peru
TTITLE4=Peru - Reprise
TTITLE5=Sima
TTITLE6=Bluespilsz
TTITLE7=Urlaub am Meer
TTITLE8=Leiden
TTITLE9=Emily
TTITLE10=Noch sind wir hier
TTITLE11=Urlaub - Reprise
EXTD=
EXTT0=
EXTT1=
EXTT2=
EXTT3=
EXTT4=
EXTT5=
EXTT6=
EXTT7=
EXTT8=
EXTT9=
EXTT10=
EXTT11=
PLAYORDER=
